<svg width="420" height="499" viewBox="0 0 420 499" fill="none" xmlns="http://www.w3.org/2000/svg">
<path d="M379.185 313.812C379.185 368.388 345.986 415.63 297.641 438.338C277.98 447.604 255.952 452.795 232.53 452.795C209.107 452.795 186.974 447.604 167.314 438.236C118.966 415.63 85.7654 368.388 85.7654 313.812C85.7654 250.175 130.891 136.34 192.34 98.9719C194.274 97.8508 196.102 96.8312 198.036 95.8156C209.103 90.1123 220.599 86.8545 232.524 86.8545C244.449 86.8545 255.947 90.1123 267.013 95.8156C267.872 96.2218 268.731 96.7297 269.591 97.2414C332.658 132.472 379.18 249.157 379.18 313.812L379.185 313.812Z" stroke="#3A5467" stroke-width="20.364" stroke-miterlimit="10" stroke-linecap="round" stroke-linejoin="round"/>
<path d="M145.06 269.867C143.318 278.59 142.381 286.77 142.381 293.91C142.381 341.084 182.733 379.326 232.511 379.326C282.288 379.326 322.641 341.084 322.641 293.91C322.641 286.774 321.703 278.594 319.961 269.867H145.06Z" stroke="#3A5467" stroke-width="20.364" stroke-miterlimit="10" stroke-linecap="round" stroke-linejoin="round"/>
<path d="M107.275 54.9857H409.609" stroke="#3A5467" stroke-width="20.364" stroke-miterlimit="10" stroke-linecap="round" stroke-linejoin="round"/>
<path d="M107.275 54.9856C107.275 71.2402 85.7237 84.4198 59.1374 84.4198C32.5512 84.4198 11 71.2402 11 54.9856C11 38.7311 32.5512 25.5515 59.1374 25.5515C85.7237 25.5515 107.275 38.7311 107.275 54.9856Z" stroke="#3A5467" stroke-width="20.364" stroke-miterlimit="10" stroke-linecap="round" stroke-linejoin="round"/>
<path d="M329.548 487.822H135.408L167.318 438.236C186.979 447.603 209.112 452.795 232.534 452.795C255.957 452.795 277.98 447.604 297.645 438.338L329.548 487.822Z" stroke="#3A5467" stroke-width="20.364" stroke-miterlimit="10" stroke-linecap="round" stroke-linejoin="round"/>
<path d="M232.524 86.8553V314.087" stroke="#3A5467" stroke-width="20.364" stroke-miterlimit="10" stroke-linecap="round" stroke-linejoin="round"/>
<path d="M269.596 11.0004V97.244C268.737 96.7322 267.877 96.2245 267.018 95.8182C255.951 90.1149 244.455 86.8571 232.53 86.8571C220.605 86.8571 209.107 90.1149 198.041 95.8182C196.108 96.8338 194.283 97.8534 192.346 98.9745L192.35 11L269.596 11.0004Z" stroke="#3A5467" stroke-width="20.364" stroke-miterlimit="10" stroke-linecap="round" stroke-linejoin="round"/>
</svg>
